<svg xmlns="http://www.w3.org/2000/svg" xmlns:xlink="http://www.w3.org/1999/xlink" width="64"
    zoomAndPan="magnify" viewBox="0 0 48 48" height="64" preserveAspectRatio="xMidYMid meet"
    version="1.0">
    <defs>
        <clipPath id="a769630c10">
            <path
                d="M 0.488281 23.511719 L 11.511719 23.511719 L 11.511719 47.019531 L 0.488281 47.019531 Z M 0.488281 23.511719 "
                clip-rule="nonzero" />
        </clipPath>
        <clipPath id="8ef07d0324">
            <path
                d="M 2.695312 23.511719 L 9.304688 23.511719 C 9.890625 23.511719 10.453125 23.742188 10.863281 24.15625 C 11.277344 24.570312 11.511719 25.128906 11.511719 25.714844 L 11.511719 44.816406 C 11.511719 46.035156 10.523438 47.019531 9.304688 47.019531 L 2.695312 47.019531 C 2.109375 47.019531 1.546875 46.789062 1.136719 46.375 C 0.722656 45.960938 0.488281 45.402344 0.488281 44.816406 L 0.488281 25.714844 C 0.488281 25.128906 0.722656 24.570312 1.136719 24.15625 C 1.546875 23.742188 2.109375 23.511719 2.695312 23.511719 Z M 2.695312 23.511719 "
                clip-rule="nonzero" />
        </clipPath>
        <clipPath id="3c9349ae53">
            <path
                d="M 18.488281 11.753906 L 29.511719 11.753906 L 29.511719 47.019531 L 18.488281 47.019531 Z M 18.488281 11.753906 "
                clip-rule="nonzero" />
        </clipPath>
        <clipPath id="e61a5aecf4">
            <path
                d="M 20.695312 11.753906 L 27.304688 11.753906 C 28.523438 11.753906 29.511719 12.742188 29.511719 13.960938 L 29.511719 44.816406 C 29.511719 46.035156 28.523438 47.019531 27.304688 47.019531 L 20.695312 47.019531 C 19.476562 47.019531 18.488281 46.035156 18.488281 44.816406 L 18.488281 13.960938 C 18.488281 12.742188 19.476562 11.753906 20.695312 11.753906 Z M 20.695312 11.753906 "
                clip-rule="nonzero" />
        </clipPath>
        <clipPath id="4bd928d467">
            <path
                d="M 36.488281 0 L 47.507812 0 L 47.507812 47.019531 L 36.488281 47.019531 Z M 36.488281 0 "
                clip-rule="nonzero" />
        </clipPath>
        <clipPath id="8685b93377">
            <path
                d="M 38.695312 0 L 45.304688 0 C 46.523438 0 47.511719 0.988281 47.511719 2.203125 L 47.511719 44.816406 C 47.511719 46.035156 46.523438 47.019531 45.304688 47.019531 L 38.695312 47.019531 C 37.476562 47.019531 36.488281 46.035156 36.488281 44.816406 L 36.488281 2.203125 C 36.488281 0.988281 37.476562 0 38.695312 0 Z M 38.695312 0 "
                clip-rule="nonzero" />
        </clipPath>
    </defs>
    <g clip-path="url(#a769630c10)">
        <g clip-path="url(#8ef07d0324)">
            <path fill="#5d0196"
                d="M 0.488281 23.511719 L 11.511719 23.511719 L 11.511719 47.015625 L 0.488281 47.015625 Z M 0.488281 23.511719 "
                fill-opacity="1" fill-rule="nonzero" />
        </g>
    </g>
    <g clip-path="url(#3c9349ae53)">
        <g clip-path="url(#e61a5aecf4)">
            <path stroke-linecap="butt"
                transform="matrix(0.734694, 0, 0, 0.734694, 18.489795, 11.755104)" fill="none"
                stroke-linejoin="miter"
                d="M 3.001954 -0.00162974 L 11.998048 -0.00162974 C 13.656902 -0.00162974 15.002062 1.343531 15.002062 3.002385 L 15.002062 45.000105 C 15.002062 46.658959 13.656902 47.998803 11.998048 47.998803 L 3.001954 47.998803 C 1.3431 47.998803 -0.00206055 46.658959 -0.00206055 45.000105 L -0.00206055 3.002385 C -0.00206055 1.343531 1.3431 -0.00162974 3.001954 -0.00162974 Z M 3.001954 -0.00162974 "
                stroke="#5d0196" stroke-width="4" stroke-opacity="1" stroke-miterlimit="4" />
        </g>
    </g>
    <g clip-path="url(#4bd928d467)">
        <g clip-path="url(#8685b93377)">
            <path stroke-linecap="butt"
                transform="matrix(0.734694, 0, 0, 0.734694, 36.489795, 0.00000251971)" fill="none"
                stroke-linejoin="miter"
                d="M 3.001955 -0.00000342961 L 11.998048 -0.00000342961 C 13.656903 -0.00000342961 15.002063 1.345157 15.002063 2.998694 L 15.002063 61.000103 C 15.002063 62.658957 13.656903 63.998801 11.998048 63.998801 L 3.001955 63.998801 C 1.343101 63.998801 -0.00205973 62.658957 -0.00205973 61.000103 L -0.00205973 2.998694 C -0.00205973 1.345157 1.343101 -0.00000342961 3.001955 -0.00000342961 Z M 3.001955 -0.00000342961 "
                stroke="#5d0196" stroke-width="4" stroke-opacity="1" stroke-miterlimit="4" />
        </g>
    </g>
</svg>